<svg xmlns="http://www.w3.org/2000/svg" xmlns:xlink="http://www.w3.org/1999/xlink" preserveAspectRatio="xMidYMid meet" version="1.0" viewBox="-0.2 0.0 515.3 430.0" zoomAndPan="magnify" style="fill: rgb(0, 0, 0);" original_string_length="2742"><linearGradient gradientUnits="userSpaceOnUse" id="__id120_sa5zivhdzvkg" x1="325.32" x2="421.645" xlink:actuate="onLoad" xlink:show="other" xlink:type="simple" xmlns:xlink="http://www.w3.org/1999/xlink" y1="408.465" y2="-157.806"><stop offset="0" style="stop-color: rgb(255, 102, 196);"/><stop offset=".5" style="stop-color: rgb(140, 82, 255);"/><stop offset="1" style="stop-color: rgb(0, 74, 173);"/></linearGradient><path d="M472.214325,257.3482056L261.4059448,0l-0.0000916,0.0000779 c-52.4247437,42.9440536-60.1103516,120.2557373-17.1663055,172.6804657l210.8083954,257.3482056l0.0000916-0.0000916 C507.4727783,387.0845947,515.1583862,309.7729187,472.214325,257.3482056z" style="fill: url(&quot;#__id120_sa5zivhdzvkg&quot;);"/><linearGradient gradientUnits="userSpaceOnUse" id="__id121_sa5zivhdzvkg" x1="300.32" x2="316.861" xlink:actuate="onLoad" xlink:show="other" xlink:type="simple" xmlns:xlink="http://www.w3.org/1999/xlink" y1="428.555" y2="8.23"><stop offset="0" style="stop-color: rgb(255, 102, 196);"/><stop offset=".5" style="stop-color: rgb(140, 82, 255);"/><stop offset="1" style="stop-color: rgb(0, 74, 173);"/></linearGradient><path d="M428.4550476,258.5467834L159.9531555,62.1415596l-0.0000763,0.0000992 c-40.0099564,54.6968727-28.1038666,131.4719238,26.5930023,171.4818878l268.5018921,196.4051971l0.000061-0.0000916 C495.0580139,375.3317871,483.1519165,298.5567322,428.4550476,258.5467834z" style="fill: url(&quot;#__id121_sa5zivhdzvkg&quot;);"/><linearGradient gradientUnits="userSpaceOnUse" id="__id122_sa5zivhdzvkg" x1="263.629" x2="251.953" xlink:actuate="onLoad" xlink:show="other" xlink:type="simple" xmlns:xlink="http://www.w3.org/1999/xlink" y1="435.751" y2="163.319"><stop offset="0" style="stop-color: rgb(255, 102, 196);"/><stop offset=".5" style="stop-color: rgb(140, 82, 255);"/><stop offset="1" style="stop-color: rgb(0, 74, 173);"/></linearGradient><path d="M376.7207031,275.1801453L60.6375198,171.4512329l-0.0000381,0.0001068 c-21.1307526,64.3897247,13.9375763,133.7177582,78.327301,154.848526l316.0831909,103.7288818l0.0000305-0.0000916 C476.1787415,365.638916,441.1104431,296.3108826,376.7207031,275.1801453z" style="fill: url(&quot;#__id122_sa5zivhdzvkg&quot;);"/><linearGradient gradientUnits="userSpaceOnUse" id="__id123_sa5zivhdzvkg" x1="384.289" x2="154.667" xlink:actuate="onLoad" xlink:show="other" xlink:type="simple" xmlns:xlink="http://www.w3.org/1999/xlink" y1="618.499" y2="251.688"><stop offset="0" style="stop-color: rgb(255, 102, 196);"/><stop offset=".5" style="stop-color: rgb(140, 82, 255);"/><stop offset="1" style="stop-color: rgb(0, 74, 173);"/></linearGradient><path d="M332.6676941,306.9989929L0.0004392,306.1187744l-0.0000003,0.0001221 c-0.179314,67.7680664,54.6122055,122.8503113,122.3802795,123.0296326l332.6672363,0.8802185v-0.0001221 C455.2272949,362.2605591,400.4357605,307.1783142,332.6676941,306.9989929z" style="fill: url(&quot;#__id123_sa5zivhdzvkg&quot;);"/></svg>